<mxfile host="app.diagrams.net" modified="2023-12-14T09:44:36.983Z" agent="Mozilla/5.0 (Windows NT 10.0; Win64; x64) AppleWebKit/537.36 (KHTML, like Gecko) Chrome/119.0.0.0 Safari/537.36" etag="hoo4N004aH4ot8h7GgmE" version="22.1.8" type="github">
  <diagram name="Page-1" id="YmJoYWuQGjE3YAbMl2xC">
    <mxGraphModel dx="1191" dy="784" grid="1" gridSize="10" guides="1" tooltips="1" connect="1" arrows="1" fold="1" page="1" pageScale="1" pageWidth="850" pageHeight="1100" math="0" shadow="0">
      <root>
        <mxCell id="0" />
        <mxCell id="1" parent="0" />
        <mxCell id="EVXR19roOYmY0BXJZwpf-1" value="system_server进程创建完成" style="rounded=0;whiteSpace=wrap;html=1;" parent="1" vertex="1">
          <mxGeometry x="190" y="220" width="230" height="30" as="geometry" />
        </mxCell>
        <mxCell id="EVXR19roOYmY0BXJZwpf-2" value="创建AMS,PMS,LS,DMS等服务" style="rounded=0;whiteSpace=wrap;html=1;" parent="1" vertex="1">
          <mxGeometry x="190" y="275" width="230" height="30" as="geometry" />
        </mxCell>
        <mxCell id="EVXR19roOYmY0BXJZwpf-3" value="" style="html=1;shadow=0;dashed=0;align=center;verticalAlign=middle;shape=mxgraph.arrows2.arrow;dy=0.6;dx=40;direction=south;notch=0;" parent="1" vertex="1">
          <mxGeometry x="440" y="190" width="30" height="730" as="geometry" />
        </mxCell>
        <mxCell id="EVXR19roOYmY0BXJZwpf-4" value="创建PKMS,WMS,IMS等服务" style="rounded=0;whiteSpace=wrap;html=1;" parent="1" vertex="1">
          <mxGeometry x="190" y="332" width="230" height="30" as="geometry" />
        </mxCell>
        <mxCell id="EVXR19roOYmY0BXJZwpf-5" value="调用WMS,PMS,PKMS,DMS,AMS的systemReady方法" style="rounded=0;whiteSpace=wrap;html=1;" parent="1" vertex="1">
          <mxGeometry x="195" y="440" width="230" height="30" as="geometry" />
        </mxCell>
        <mxCell id="EVXR19roOYmY0BXJZwpf-6" value="PHASE 0" style="rounded=0;whiteSpace=wrap;html=1;" parent="1" vertex="1">
          <mxGeometry x="500" y="250" width="280" height="20" as="geometry" />
        </mxCell>
        <mxCell id="EVXR19roOYmY0BXJZwpf-7" value="PHASE_WAIT_FOR_DEFAULT_DISPLAY(100)" style="rounded=0;whiteSpace=wrap;html=1;" parent="1" vertex="1">
          <mxGeometry x="500" y="305" width="280" height="20" as="geometry" />
        </mxCell>
        <mxCell id="EVXR19roOYmY0BXJZwpf-9" value=" PHASE_SYSTEM_SERVICES_READY (500)" style="rounded=0;whiteSpace=wrap;html=1;" parent="1" vertex="1">
          <mxGeometry x="500" y="400" width="280" height="20" as="geometry" />
        </mxCell>
        <mxCell id="EVXR19roOYmY0BXJZwpf-10" value=" PHASE_ACTIVITY_MANAGER_READY&amp;nbsp; (550)" style="rounded=0;whiteSpace=wrap;html=1;" parent="1" vertex="1">
          <mxGeometry x="500" y="500" width="280" height="20" as="geometry" />
        </mxCell>
        <mxCell id="EVXR19roOYmY0BXJZwpf-11" value=" PHASE_THIRD_PARTY_APPS_CAN_START&amp;nbsp;(600)" style="rounded=0;whiteSpace=wrap;html=1;" parent="1" vertex="1">
          <mxGeometry x="500" y="600" width="280" height="20" as="geometry" />
        </mxCell>
        <mxCell id="EVXR19roOYmY0BXJZwpf-12" value=" PHASE_BOOT_COMPLETED&amp;nbsp;(1000)" style="rounded=0;whiteSpace=wrap;html=1;" parent="1" vertex="1">
          <mxGeometry x="500" y="804" width="280" height="20" as="geometry" />
        </mxCell>
        <mxCell id="EVXR19roOYmY0BXJZwpf-14" value="调用其他服务的systemReady方法" style="rounded=0;whiteSpace=wrap;html=1;" parent="1" vertex="1">
          <mxGeometry x="195" y="560" width="230" height="30" as="geometry" />
        </mxCell>
        <mxCell id="EVXR19roOYmY0BXJZwpf-15" value="启动systemUI" style="rounded=0;whiteSpace=wrap;html=1;" parent="1" vertex="1">
          <mxGeometry x="195" y="690" width="230" height="30" as="geometry" />
        </mxCell>
        <mxCell id="EVXR19roOYmY0BXJZwpf-16" value="各种服务调用systemRunning方法" style="rounded=0;whiteSpace=wrap;html=1;" parent="1" vertex="1">
          <mxGeometry x="195" y="630" width="230" height="30" as="geometry" />
        </mxCell>
        <mxCell id="EVXR19roOYmY0BXJZwpf-19" value="AMS调用finishBooting" style="rounded=0;whiteSpace=wrap;html=1;" parent="1" vertex="1">
          <mxGeometry x="195" y="760" width="230" height="30" as="geometry" />
        </mxCell>
        <mxCell id="EVXR19roOYmY0BXJZwpf-23" value="" style="endArrow=none;html=1;rounded=0;dashed=1;dashPattern=1 2;shape=link;edgeStyle=orthogonalEdgeStyle;" parent="1" edge="1">
          <mxGeometry relative="1" as="geometry">
            <mxPoint x="170" y="260" as="sourcePoint" />
            <mxPoint x="500" y="259.5" as="targetPoint" />
          </mxGeometry>
        </mxCell>
        <mxCell id="EVXR19roOYmY0BXJZwpf-24" value="" style="resizable=0;html=1;whiteSpace=wrap;align=right;verticalAlign=bottom;" parent="EVXR19roOYmY0BXJZwpf-23" connectable="0" vertex="1">
          <mxGeometry x="1" relative="1" as="geometry" />
        </mxCell>
        <mxCell id="EVXR19roOYmY0BXJZwpf-25" value="" style="endArrow=none;html=1;rounded=0;dashed=1;dashPattern=1 2;shape=link;edgeStyle=orthogonalEdgeStyle;" parent="1" edge="1">
          <mxGeometry relative="1" as="geometry">
            <mxPoint x="170" y="315" as="sourcePoint" />
            <mxPoint x="500" y="314.5" as="targetPoint" />
          </mxGeometry>
        </mxCell>
        <mxCell id="EVXR19roOYmY0BXJZwpf-26" value="" style="resizable=0;html=1;whiteSpace=wrap;align=right;verticalAlign=bottom;" parent="EVXR19roOYmY0BXJZwpf-25" connectable="0" vertex="1">
          <mxGeometry x="1" relative="1" as="geometry" />
        </mxCell>
        <mxCell id="EVXR19roOYmY0BXJZwpf-27" value="" style="endArrow=none;html=1;rounded=0;dashed=1;dashPattern=1 2;shape=link;edgeStyle=orthogonalEdgeStyle;" parent="1" edge="1">
          <mxGeometry relative="1" as="geometry">
            <mxPoint x="170" y="410" as="sourcePoint" />
            <mxPoint x="500" y="409.5" as="targetPoint" />
          </mxGeometry>
        </mxCell>
        <mxCell id="EVXR19roOYmY0BXJZwpf-28" value="" style="resizable=0;html=1;whiteSpace=wrap;align=right;verticalAlign=bottom;" parent="EVXR19roOYmY0BXJZwpf-27" connectable="0" vertex="1">
          <mxGeometry x="1" relative="1" as="geometry" />
        </mxCell>
        <mxCell id="EVXR19roOYmY0BXJZwpf-29" value="" style="endArrow=none;html=1;rounded=0;dashed=1;dashPattern=1 2;shape=link;edgeStyle=orthogonalEdgeStyle;" parent="1" edge="1">
          <mxGeometry relative="1" as="geometry">
            <mxPoint x="170" y="510" as="sourcePoint" />
            <mxPoint x="500" y="509.5" as="targetPoint" />
          </mxGeometry>
        </mxCell>
        <mxCell id="EVXR19roOYmY0BXJZwpf-30" value="" style="resizable=0;html=1;whiteSpace=wrap;align=right;verticalAlign=bottom;" parent="EVXR19roOYmY0BXJZwpf-29" connectable="0" vertex="1">
          <mxGeometry x="1" relative="1" as="geometry" />
        </mxCell>
        <mxCell id="EVXR19roOYmY0BXJZwpf-31" value="" style="endArrow=none;html=1;rounded=0;dashed=1;dashPattern=1 2;shape=link;edgeStyle=orthogonalEdgeStyle;" parent="1" edge="1">
          <mxGeometry relative="1" as="geometry">
            <mxPoint x="170" y="610" as="sourcePoint" />
            <mxPoint x="500" y="609.5" as="targetPoint" />
          </mxGeometry>
        </mxCell>
        <mxCell id="EVXR19roOYmY0BXJZwpf-32" value="" style="resizable=0;html=1;whiteSpace=wrap;align=right;verticalAlign=bottom;" parent="EVXR19roOYmY0BXJZwpf-31" connectable="0" vertex="1">
          <mxGeometry x="1" relative="1" as="geometry" />
        </mxCell>
        <mxCell id="EVXR19roOYmY0BXJZwpf-33" value="" style="endArrow=none;html=1;rounded=0;dashed=1;dashPattern=1 2;shape=link;edgeStyle=orthogonalEdgeStyle;" parent="1" edge="1">
          <mxGeometry relative="1" as="geometry">
            <mxPoint x="170" y="814" as="sourcePoint" />
            <mxPoint x="500" y="813.5" as="targetPoint" />
          </mxGeometry>
        </mxCell>
        <mxCell id="EVXR19roOYmY0BXJZwpf-34" value="" style="resizable=0;html=1;whiteSpace=wrap;align=right;verticalAlign=bottom;" parent="EVXR19roOYmY0BXJZwpf-33" connectable="0" vertex="1">
          <mxGeometry x="1" relative="1" as="geometry" />
        </mxCell>
        <mxCell id="EVXR19roOYmY0BXJZwpf-37" value="&lt;span style=&quot;color: rgb(0, 0, 255); font-family: monospace; font-style: normal; font-variant-ligatures: normal; font-variant-caps: normal; font-weight: 400; letter-spacing: normal; orphans: 2; text-align: start; text-indent: 0px; text-transform: none; widows: 2; word-spacing: 0px; -webkit-text-stroke-width: 0px; background-color: rgb(255, 255, 255); text-decoration-thickness: initial; text-decoration-style: initial; text-decoration-color: initial; float: none; display: inline !important;&quot;&gt;&lt;font style=&quot;font-size: 18px;&quot;&gt;startOtherServices&lt;/font&gt;&lt;/span&gt;" style="text;whiteSpace=wrap;html=1;" parent="1" vertex="1">
          <mxGeometry x="830" y="362" width="160" height="40" as="geometry" />
        </mxCell>
        <mxCell id="EVXR19roOYmY0BXJZwpf-39" value="&lt;span style=&quot;color: rgb(0, 0, 255); font-family: monospace; font-style: normal; font-variant-ligatures: normal; font-variant-caps: normal; font-weight: 400; letter-spacing: normal; orphans: 2; text-align: start; text-indent: 0px; text-transform: none; widows: 2; word-spacing: 0px; -webkit-text-stroke-width: 0px; background-color: rgb(255, 255, 255); text-decoration-thickness: initial; text-decoration-style: initial; text-decoration-color: initial; float: none; display: inline !important;&quot;&gt;&lt;font style=&quot;font-size: 18px;&quot;&gt;startBootStrapServices&lt;/font&gt;&lt;/span&gt;" style="text;whiteSpace=wrap;html=1;" parent="1" vertex="1">
          <mxGeometry x="810" y="240" width="160" height="40" as="geometry" />
        </mxCell>
      </root>
    </mxGraphModel>
  </diagram>
</mxfile>
